#Comment line ignore any data following # character 
#Hierarchical Translation and Rotation (.htr) file 
[Header]	
#Header keywords are followed by a single value 
FileType HTR		#Single word string
DataType HTRS		#Translation followed by rotation and scale data
FileVersion 1		#integer
NumSegments 84		#integer
NumFrames 2		#integer
DataFrameRate 30		#integer, data frame rate in this file
EulerRotationOrder ZYX
CalibrationUnits mm
RotationUnits Degrees
GlobalAxisofGravity Y
BoneLengthAxis Y
ScaleFactor 1.00
[SegmentNames&Hierarchy]
#CHILD	PARENT
MASTER GLOBAL
root MASTER
chest root
L_mid_tent01 root
R_mid_tent01 root
spine01 root
Bip01_Neck chest
L_humerus chest
R_humerus chest
weapon_bone chest
Bip01_Head Bip01_Neck
eye_left_bone Bip01_Head
eye_right_bone Bip01_Head
L_forearm L_humerus
L_front_hand L_forearm
L_weapon_bone L_forearm
L_front_hand01_01 L_front_hand
L_front_hand02_01 L_front_hand
L_front_hand03_01 L_front_hand
L_front_hand01_02 L_front_hand01_01
L_front_hand02_02 L_front_hand02_01
L_front_hand03_02 L_front_hand03_01
R_forearm R_humerus
R_front_hand R_forearm
R_weapon_bone R_forearm
R_front_hand01_01 R_front_hand
R_front_hand02_01 R_front_hand
R_front_hand03_01 R_front_hand
R_front_hand01_02 R_front_hand01_01
R_front_hand02_02 R_front_hand02_01
R_front_hand03_02 R_front_hand03_01
null_rope01_connect L_mid_tent01
Rope1_Seg01 null_rope01_connect
Rope1_Seg02 Rope1_Seg01
Rope1_Seg03 Rope1_Seg02
Rope1_Seg04 Rope1_Seg03
Rope1_Seg05 Rope1_Seg04
Rope1_Seg06 Rope1_Seg05
Rope1_Seg07 Rope1_Seg06
Rope1_Seg09 Rope1_Seg07
L_mid_hand01 Rope1_Seg09
L_mid_hand02 Rope1_Seg09
L_mid_hand03 Rope1_Seg09
null_rope02_connect R_mid_tent01
Rope2_Seg01 null_rope02_connect
Rope2_Seg02 Rope2_Seg01
Rope2_Seg03 Rope2_Seg02
Rope2_Seg04 Rope2_Seg03
Rope2_Seg05 Rope2_Seg04
Rope2_Seg06 Rope2_Seg05
Rope2_Seg07 Rope2_Seg06
Rope2_Seg09 Rope2_Seg07
R_mid_hand01 Rope2_Seg09
R_mid_hand02 Rope2_Seg09
R_mid_hand03 Rope2_Seg09
spine02 spine01
spine03 spine02
pelvis spine03
null_rope03_connect pelvis
null_rope04_connect pelvis
Rope3_Seg01 null_rope03_connect
Rope3_Seg02 Rope3_Seg01
Rope3_Seg03 Rope3_Seg02
Rope3_Seg04 Rope3_Seg03
Rope3_Seg05 Rope3_Seg04
Rope3_Seg06 Rope3_Seg05
Rope3_Seg07 Rope3_Seg06
Rope3_Seg08 Rope3_Seg07
Rope3_Seg09 Rope3_Seg08
R_rear_hand01 Rope3_Seg09
R_rear_hand02 Rope3_Seg09
R_rear_hand03 Rope3_Seg09
Rope4_Seg01 null_rope04_connect
Rope4_Seg02 Rope4_Seg01
Rope4_Seg03 Rope4_Seg02
Rope4_Seg04 Rope4_Seg03
Rope4_Seg05 Rope4_Seg04
Rope4_Seg06 Rope4_Seg05
Rope4_Seg07 Rope4_Seg06
Rope4_Seg08 Rope4_Seg07
Rope4_Seg09 Rope4_Seg08
L_rear_hand01 Rope4_Seg09
L_rear_hand02 Rope4_Seg09
L_rear_hand03 Rope4_Seg09
[BasePosition]
#SegmentName Tx, Ty, Tz, Rx, Ry, Rz, BoneLength
MASTER 0.000000 0.000000 0.000000 -90.000000 0.000000 0.000000 10.000000 
root 0.000000 0.000000 0.000000 0.000000 0.000000 0.000000 10.000000 
chest 0.000000 0.000000 0.000000 0.000000 0.000000 0.000000 10.000000 
L_mid_tent01 0.000000 0.000000 0.000000 0.000000 0.000000 0.000000 10.000000 
R_mid_tent01 0.000000 0.000000 0.000000 0.000000 0.000000 0.000000 10.000000 
spine01 0.000000 0.000000 0.000000 0.000000 0.000000 0.000000 10.000000 
Bip01_Neck 0.000000 0.000000 0.000000 0.000000 0.000000 0.000000 10.000000 
L_humerus 0.000000 0.000000 0.000000 0.000000 0.000000 0.000000 10.000000 
R_humerus 0.000000 0.000000 0.000000 0.000000 0.000000 0.000000 10.000000 
weapon_bone 0.000000 0.000000 0.000000 0.000000 0.000000 0.000000 10.000000 
Bip01_Head 0.000000 0.000000 0.000000 0.000000 0.000000 0.000000 10.000000 
eye_left_bone 0.000000 0.000000 0.000000 0.000000 0.000000 0.000000 10.000000 
eye_right_bone 0.000000 0.000000 0.000000 0.000000 0.000000 0.000000 10.000000 
L_forearm 0.000000 0.000000 0.000000 0.000000 0.000000 0.000000 10.000000 
L_front_hand 0.000000 0.000000 0.000000 0.000000 0.000000 0.000000 10.000000 
L_weapon_bone 0.000000 0.000000 0.000000 0.000000 0.000000 0.000000 10.000000 
L_front_hand01_01 0.000000 0.000000 0.000000 0.000000 0.000000 0.000000 10.000000 
L_front_hand02_01 0.000000 0.000000 0.000000 0.000000 0.000000 0.000000 10.000000 
L_front_hand03_01 0.000000 0.000000 0.000000 0.000000 0.000000 0.000000 10.000000 
L_front_hand01_02 0.000000 0.000000 0.000000 0.000000 0.000000 0.000000 10.000000 
L_front_hand02_02 0.000000 0.000000 0.000000 0.000000 0.000000 0.000000 10.000000 
L_front_hand03_02 0.000000 0.000000 0.000000 0.000000 0.000000 0.000000 10.000000 
R_forearm 0.000000 0.000000 0.000000 0.000000 0.000000 0.000000 10.000000 
R_front_hand 0.000000 0.000000 0.000000 0.000000 0.000000 0.000000 10.000000 
R_weapon_bone 0.000000 0.000000 0.000000 0.000000 0.000000 0.000000 10.000000 
R_front_hand01_01 0.000000 0.000000 0.000000 0.000000 0.000000 0.000000 10.000000 
R_front_hand02_01 0.000000 0.000000 0.000000 0.000000 0.000000 0.000000 10.000000 
R_front_hand03_01 0.000000 0.000000 0.000000 0.000000 0.000000 0.000000 10.000000 
R_front_hand01_02 0.000000 0.000000 0.000000 0.000000 0.000000 0.000000 10.000000 
R_front_hand02_02 0.000000 0.000000 0.000000 0.000000 0.000000 0.000000 10.000000 
R_front_hand03_02 0.000000 0.000000 0.000000 0.000000 0.000000 0.000000 10.000000 
null_rope01_connect 0.000000 0.000000 0.000000 0.000000 0.000000 0.000000 10.000000 
Rope1_Seg01 0.000000 0.000000 0.000000 0.000000 0.000000 0.000000 10.000000 
Rope1_Seg02 0.000000 0.000000 0.000000 0.000000 0.000000 0.000000 10.000000 
Rope1_Seg03 0.000000 0.000000 0.000000 0.000000 0.000000 0.000000 10.000000 
Rope1_Seg04 0.000000 0.000000 0.000000 0.000000 0.000000 0.000000 10.000000 
Rope1_Seg05 0.000000 0.000000 0.000000 0.000000 0.000000 0.000000 10.000000 
Rope1_Seg06 0.000000 0.000000 0.000000 0.000000 0.000000 0.000000 10.000000 
Rope1_Seg07 0.000000 0.000000 0.000000 0.000000 0.000000 0.000000 10.000000 
Rope1_Seg09 0.000000 0.000000 0.000000 0.000000 0.000000 0.000000 10.000000 
L_mid_hand01 0.000000 0.000000 0.000000 0.000000 0.000000 0.000000 10.000000 
L_mid_hand02 0.000000 0.000000 0.000000 0.000000 0.000000 0.000000 10.000000 
L_mid_hand03 0.000000 0.000000 0.000000 0.000000 0.000000 0.000000 10.000000 
null_rope02_connect 0.000000 0.000000 0.000000 0.000000 0.000000 0.000000 10.000000 
Rope2_Seg01 0.000000 0.000000 0.000000 0.000000 0.000000 0.000000 10.000000 
Rope2_Seg02 0.000000 0.000000 0.000000 0.000000 0.000000 0.000000 10.000000 
Rope2_Seg03 0.000000 0.000000 0.000000 0.000000 0.000000 0.000000 10.000000 
Rope2_Seg04 0.000000 0.000000 0.000000 0.000000 0.000000 0.000000 10.000000 
Rope2_Seg05 0.000000 0.000000 0.000000 0.000000 0.000000 0.000000 10.000000 
Rope2_Seg06 0.000000 0.000000 0.000000 0.000000 0.000000 0.000000 10.000000 
Rope2_Seg07 0.000000 0.000000 0.000000 0.000000 0.000000 0.000000 10.000000 
Rope2_Seg09 0.000000 0.000000 0.000000 0.000000 0.000000 0.000000 10.000000 
R_mid_hand01 0.000000 0.000000 0.000000 0.000000 0.000000 0.000000 10.000000 
R_mid_hand02 0.000000 0.000000 0.000000 0.000000 0.000000 0.000000 10.000000 
R_mid_hand03 0.000000 0.000000 0.000000 0.000000 0.000000 0.000000 10.000000 
spine02 0.000000 0.000000 0.000000 0.000000 0.000000 0.000000 10.000000 
spine03 0.000000 0.000000 0.000000 0.000000 0.000000 0.000000 10.000000 
pelvis 0.000000 0.000000 0.000000 0.000000 0.000000 0.000000 10.000000 
null_rope03_connect 0.000000 0.000000 0.000000 0.000000 0.000000 0.000000 10.000000 
null_rope04_connect 0.000000 0.000000 0.000000 0.000000 0.000000 0.000000 10.000000 
Rope3_Seg01 0.000000 0.000000 0.000000 0.000000 0.000000 0.000000 10.000000 
Rope3_Seg02 0.000000 0.000000 0.000000 0.000000 0.000000 0.000000 10.000000 
Rope3_Seg03 0.000000 0.000000 0.000000 0.000000 0.000000 0.000000 10.000000 
Rope3_Seg04 0.000000 0.000000 0.000000 0.000000 0.000000 0.000000 10.000000 
Rope3_Seg05 0.000000 0.000000 0.000000 0.000000 0.000000 0.000000 10.000000 
Rope3_Seg06 0.000000 0.000000 0.000000 0.000000 0.000000 0.000000 10.000000 
Rope3_Seg07 0.000000 0.000000 0.000000 0.000000 0.000000 0.000000 10.000000 
Rope3_Seg08 0.000000 0.000000 0.000000 0.000000 0.000000 0.000000 10.000000 
Rope3_Seg09 0.000000 0.000000 0.000000 0.000000 0.000000 0.000000 10.000000 
R_rear_hand01 0.000000 0.000000 0.000000 0.000000 0.000000 0.000000 10.000000 
R_rear_hand02 0.000000 0.000000 0.000000 0.000000 0.000000 0.000000 10.000000 
R_rear_hand03 0.000000 0.000000 0.000000 0.000000 0.000000 0.000000 10.000000 
Rope4_Seg01 0.000000 0.000000 0.000000 0.000000 0.000000 0.000000 10.000000 
Rope4_Seg02 0.000000 0.000000 0.000000 0.000000 0.000000 0.000000 10.000000 
Rope4_Seg03 0.000000 0.000000 0.000000 0.000000 0.000000 0.000000 10.000000 
Rope4_Seg04 0.000000 0.000000 0.000000 0.000000 0.000000 0.000000 10.000000 
Rope4_Seg05 0.000000 0.000000 0.000000 0.000000 0.000000 0.000000 10.000000 
Rope4_Seg06 0.000000 0.000000 0.000000 0.000000 0.000000 0.000000 10.000000 
Rope4_Seg07 0.000000 0.000000 0.000000 0.000000 0.000000 0.000000 10.000000 
Rope4_Seg08 0.000000 0.000000 0.000000 0.000000 0.000000 0.000000 10.000000 
Rope4_Seg09 0.000000 0.000000 0.000000 0.000000 0.000000 0.000000 10.000000 
L_rear_hand01 0.000000 0.000000 0.000000 0.000000 0.000000 0.000000 10.000000 
L_rear_hand02 0.000000 0.000000 0.000000 0.000000 0.000000 0.000000 10.000000 
L_rear_hand03 0.000000 0.000000 0.000000 0.000000 0.000000 0.000000 10.000000 
#Beginning of Data. Separated by tabs
#Fr	Tx	Ty	Tz	Rx	Ry	Rz	SF
[MASTER]
36 0.000000 0.000000 0.000000 0.001660 0.001660 0.001660 0.000000
37 0.000000 0.000000 0.000000 0.001660 0.001660 0.001660 0.000000
[root]
36 -33.620098 6.524038 1492.996338 -91.706375 7.188744 -90.037125 1493.389038
37 -29.904476 4.926339 1495.338257 -91.706375 7.188744 -90.037125 1495.645386
[chest]
36 -84.512650 -34.090519 0.000000 -2.117274 0.462005 -179.268204 91.129311
37 -84.512650 -34.090519 0.000000 -2.117274 0.462005 -179.268204 91.129311
[L_mid_tent01]
36 27.299511 22.177458 -249.918259 -11.212391 7.173965 46.128521 252.381134
37 27.299511 22.177458 -249.918259 -11.212391 7.173965 46.128521 252.381134
[R_mid_tent01]
36 23.228794 24.509907 226.238495 -173.453110 -7.865565 48.320805 228.744751
37 23.228794 24.509907 226.238495 -173.453110 -7.865566 48.320808 228.744751
[spine01]
36 -0.361383 -0.195265 0.000000 -0.000001 -0.000007 22.052340 0.410763
37 -0.361383 -0.195265 0.000000 -0.000001 -0.000007 22.052340 0.410763
[Bip01_Neck]
36 165.484543 71.581718 0.000119 175.896118 1.177290 24.871183 180.302734
37 165.484543 71.581718 0.000119 175.896118 1.177290 24.871183 180.302734
[L_humerus]
36 -13.983130 -135.272980 -120.471481 177.317520 0.814944 177.327347 181.680161
37 -13.983130 -135.272980 -120.471481 177.317520 0.814944 177.327347 181.680161
[R_humerus]
36 -13.983309 -135.273102 125.287651 -179.087967 -0.295690 175.068390 184.909012
37 -13.983309 -135.273102 125.287651 -179.087967 -0.295690 175.068390 184.909012
[weapon_bone]
36 235.964890 -300.705902 0.000000 0.000000 -89.951546 -128.212341 382.234833
37 235.964890 -300.705902 0.000000 0.000000 -89.951546 -128.212341 382.234833
[Bip01_Head]
36 97.775497 22.186661 5.309563 3.366012 3.339071 -18.399078 100.401627
37 97.775497 22.186661 5.309563 3.366012 3.339071 -18.399078 100.401627
[eye_left_bone]
36 -24.626970 125.451866 -64.772606 0.000000 -90.000000 -99.840431 143.318359
37 -24.626970 125.451866 -64.772606 0.000000 -90.000000 -99.840431 143.318359
[eye_right_bone]
36 -24.626970 125.451866 64.327362 0.000000 -89.965736 80.156380 143.117676
37 -24.626970 125.451866 64.327362 0.000000 -89.965736 80.156380 143.117676
[L_forearm]
36 322.776093 0.000000 -0.000119 0.001372 -0.001904 -161.553818 322.776093
37 322.776093 0.000000 -0.000119 0.001372 -0.001904 -161.553818 322.776093
[L_front_hand]
36 241.149185 -0.042021 -3.300071 -179.659958 -2.242151 -0.019832 241.171753
37 241.149185 -0.042021 -3.300071 -179.659958 -2.242151 -0.019832 241.171753
[L_weapon_bone]
36 156.183838 0.000000 0.000000 0.000014 0.000007 0.000001 156.183838
37 156.183838 0.000000 0.000000 0.000014 0.000007 0.000001 156.183838
[L_front_hand01_01]
36 86.095154 20.947098 -0.655860 0.405585 -0.442306 -4.620490 88.609184
37 86.095154 20.947098 -0.655860 0.405585 -0.442306 -4.620490 88.609184
[L_front_hand02_01]
36 86.935165 -11.437475 24.513514 116.959450 3.630817 1.495453 91.046425
37 86.935165 -11.437475 24.513514 116.959450 3.630817 1.495453 91.046425
[L_front_hand03_01]
36 86.637497 -14.123976 -20.424902 -118.419884 -4.660555 -0.155069 90.126129
37 86.637497 -14.123976 -20.424902 -118.419884 -4.660555 -0.155069 90.126129
[L_front_hand01_02]
36 71.020905 -0.000179 0.000030 0.000004 -0.000005 -8.379269 71.020905
37 71.020905 -0.000179 0.000030 0.000004 -0.000005 -8.379269 71.020905
[L_front_hand02_02]
36 71.020927 -0.000119 0.000060 -0.000005 -0.000004 -8.379259 71.020927
37 71.020927 -0.000119 0.000060 -0.000005 -0.000004 -8.379259 71.020927
[L_front_hand03_02]
36 71.020905 -0.000060 0.000060 0.000015 -0.000040 -8.379267 71.020905
37 71.020905 -0.000060 0.000060 0.000015 -0.000040 -8.379267 71.020905
[R_forearm]
36 322.776428 -0.000060 0.000030 0.066610 0.203476 -163.260239 322.776428
37 322.776428 -0.000060 0.000030 0.066610 0.203476 -163.260239 322.776428
[R_front_hand]
36 238.847015 -0.006795 2.210259 -0.270529 1.703932 2.322530 238.857239
37 238.847015 -0.006795 2.210259 -0.270529 1.703932 2.322530 238.857239
[R_weapon_bone]
36 155.664093 0.002503 -0.000030 0.003487 0.001180 -90.988930 155.664078
37 155.664093 0.002503 -0.000030 0.003487 0.001180 -90.988930 155.664078
[R_front_hand01_01]
36 87.624611 14.231146 22.918642 -116.960213 3.496675 -1.324139 91.683487
37 87.624611 14.231146 22.918642 -116.960213 3.496675 -1.324139 91.683487
[R_front_hand02_01]
36 89.356956 14.367283 -19.491137 118.419647 -4.257089 0.609827 92.579636
37 89.356956 14.367283 -19.491137 118.419647 -4.257089 0.609827 92.579636
[R_front_hand03_01]
36 87.286232 -22.307278 -0.143439 -0.387970 -0.231462 4.232001 90.091743
37 87.286232 -22.307278 -0.143439 -0.387970 -0.231462 4.232001 90.091743
[R_front_hand01_02]
36 71.020905 0.000060 0.000119 -0.000005 -0.000020 8.379271 71.020905
37 71.020905 0.000060 0.000119 -0.000005 -0.000020 8.379271 71.020905
[R_front_hand02_02]
36 71.020844 -0.000030 -0.000119 0.000000 -0.000021 8.379271 71.020836
37 71.020844 -0.000030 -0.000119 0.000000 -0.000021 8.379271 71.020836
[R_front_hand03_02]
36 71.020905 0.000000 0.000030 -0.000001 -0.000020 8.379275 71.020905
37 71.020905 0.000000 0.000030 -0.000001 -0.000020 8.379275 71.020905
[null_rope01_connect]
36 328.732483 0.000000 -0.000238 160.552872 -75.066147 -124.625038 328.732483
37 328.732483 0.000000 -0.000238 160.552872 -75.066147 -124.625038 328.732483
[Rope1_Seg01]
36 0.000000 0.000000 0.000000 -105.221481 57.194496 -103.828865 0.000000
37 0.000000 0.000000 0.000000 -103.050568 57.049263 -102.474350 0.000000
[Rope1_Seg02]
36 139.999863 -0.000179 0.000000 15.725991 -2.020642 -10.928650 139.999863
37 139.999863 -0.000179 0.000000 16.048090 -2.748896 -10.781836 139.999863
[Rope1_Seg03]
36 139.999924 0.000060 -0.000060 11.851914 -3.455342 -5.447679 139.999924
37 139.999924 0.000060 -0.000060 11.814347 -4.223671 -5.158558 139.999924
[Rope1_Seg04]
36 139.999924 -0.000060 -0.000119 6.734828 -3.137836 -1.977196 139.999924
37 139.999924 -0.000060 -0.000119 6.702390 -3.912559 -1.620500 139.999924
[Rope1_Seg05]
36 139.999832 0.000119 -0.000060 6.496633 -1.474837 -3.411636 139.999832
37 139.999832 0.000119 -0.000060 5.286887 -0.949050 -3.439121 139.999832
[Rope1_Seg06]
36 139.999954 0.000119 -0.000060 13.692047 -1.541462 -7.301751 139.999954
37 139.999954 0.000119 -0.000060 11.152914 0.597112 -8.126390 139.999954
[Rope1_Seg07]
36 139.999985 0.000060 0.000000 25.543501 -4.441166 -9.666158 139.999985
37 139.999985 0.000060 0.000000 28.329922 -1.251701 -11.815936 139.999985
[Rope1_Seg09]
36 121.602913 0.000119 -0.000089 -89.793175 -1.359789 0.847147 121.602913
37 121.602913 0.000119 -0.000089 -89.793175 -1.359789 0.847147 121.602913
[L_mid_hand01]
36 103.859421 1.038730 8.195221 106.855484 -31.239275 -9.461397 104.187431
37 103.859421 1.038730 8.195221 106.855484 -31.239275 -9.461397 104.187431
[L_mid_hand02]
36 105.572853 -4.139662 -10.864139 -142.331345 25.752670 -28.774628 106.211075
37 105.572853 -4.139662 -10.864139 -142.331345 25.752670 -28.774628 106.211075
[L_mid_hand03]
36 104.641464 17.579376 -3.913581 -16.122810 9.734291 34.223598 106.179977
37 104.641464 17.579376 -3.913581 -16.122810 9.734291 34.223598 106.179977
[null_rope02_connect]
36 328.732849 0.000179 -0.000119 174.610336 81.478409 -39.424759 328.732849
37 328.732849 0.000179 -0.000119 174.610336 81.478409 -39.424759 328.732849
[Rope2_Seg01]
36 0.000076 0.000112 0.000153 117.517105 51.273273 -112.534317 0.000204
37 0.000076 0.000112 0.000153 116.466911 50.494663 -113.361244 0.000204
[Rope2_Seg02]
36 139.999741 -0.000060 -0.000119 -0.290796 16.093460 -8.748894 139.999756
37 139.999741 -0.000060 -0.000119 -0.202575 15.492254 -8.513753 139.999756
[Rope2_Seg03]
36 140.000107 0.000030 0.000000 14.929189 15.482499 -17.045355 140.000107
37 140.000107 0.000030 0.000000 12.808226 14.676152 -16.124512 140.000107
[Rope2_Seg04]
36 139.999802 0.000000 -0.000060 -15.679657 11.550343 -0.680839 139.999802
37 139.999802 0.000000 -0.000060 -15.006489 11.930619 -0.456923 139.999802
[Rope2_Seg05]
36 139.999985 -0.000060 0.000119 -38.952080 3.318344 14.923315 139.999985
37 139.999985 -0.000060 0.000119 -33.457703 3.314200 12.598578 139.999985
[Rope2_Seg06]
36 139.999893 -0.000030 -0.000119 -7.390313 -1.612105 4.657040 139.999893
37 139.999893 -0.000030 -0.000119 -7.378144 -0.612522 3.932395 139.999893
[Rope2_Seg07]
36 139.999893 0.000060 -0.000060 -3.351222 -0.895101 2.333751 139.999893
37 139.999893 0.000060 -0.000060 -3.587363 -0.399099 2.057854 139.999893
[Rope2_Seg09]
36 121.338966 0.000089 -0.000060 33.793236 -1.359788 -0.847141 121.338966
37 121.338966 0.000089 -0.000060 33.793236 -1.359788 -0.847141 121.338966
[R_mid_hand01]
36 104.680779 11.144459 -10.335981 -41.523792 25.424656 28.595957 105.778534
37 104.680779 11.144459 -10.335981 -41.523792 25.424656 28.595957 105.778534
[R_mid_hand02]
36 104.070427 2.443552 8.231699 72.847389 -32.746803 10.013901 104.424065
37 104.070427 2.443552 8.231699 72.847389 -32.746803 10.013901 104.424065
[R_mid_hand03]
36 106.028137 -11.221827 -5.996406 -167.901306 10.259192 -37.009720 106.788818
37 106.028137 -11.221827 -5.996406 -167.901306 10.259192 -37.009720 106.788818
[spine02]
36 129.756927 0.001550 0.000119 0.360061 -4.044797 -12.915058 129.756927
37 129.756927 0.001550 0.000119 0.360061 -4.044797 -12.915058 129.756927
[spine03]
36 78.613846 0.087372 -4.898873 1.896495 3.831288 16.473045 78.766380
37 78.613846 0.087372 -4.898873 1.896495 3.831288 16.473045 78.766380
[pelvis]
36 169.435242 0.051022 0.000000 -0.060465 -0.180225 14.087930 169.435257
37 169.435242 0.051022 0.000000 -0.060465 -0.180225 14.087930 169.435257
[null_rope03_connect]
36 -1.257226 -2.466202 137.391083 -168.629745 -89.386742 -148.244797 137.418976
37 -1.257226 -2.466202 137.391083 -168.629776 -89.386429 -148.244614 137.418976
[null_rope04_connect]
36 -1.259640 -2.480268 -137.844437 -168.629745 -89.386742 -148.244797 137.872513
37 -1.259640 -2.480268 -137.844437 -168.629776 -89.386429 -148.244614 137.872513
[Rope3_Seg01]
36 0.000000 0.000000 0.000000 -131.234558 4.435968 -93.474915 0.000000
37 0.000000 0.000000 0.000000 -131.220810 4.463772 -90.648560 0.000000
[Rope3_Seg02]
36 139.999924 -0.000119 0.000060 -2.174149 -3.321796 6.327865 139.999924
37 139.999924 -0.000119 0.000060 -1.675479 -1.920019 7.202482 139.999924
[Rope3_Seg03]
36 139.999924 -0.000119 0.000119 -3.131243 -2.912207 8.467616 139.999924
37 139.999924 -0.000119 0.000119 -2.612323 -1.039628 9.614262 139.999924
[Rope3_Seg04]
36 139.999924 0.000119 0.000000 -5.148423 -1.780011 12.384474 139.999924
37 139.999924 0.000119 0.000000 -4.463673 0.740151 13.641181 139.999924
[Rope3_Seg05]
36 139.999924 -0.000238 0.000060 -0.991503 -11.275295 -9.518570 139.999924
37 139.999924 -0.000238 0.000060 -1.866595 -12.380897 -9.075063 139.999924
[Rope3_Seg06]
36 139.999893 -0.000119 -0.000060 1.533394 -9.798652 -14.179041 139.999893
37 139.999893 -0.000119 -0.000060 1.447164 -11.616807 -14.526320 139.999893
[Rope3_Seg07]
36 139.999771 0.000060 -0.000119 0.763928 -5.039122 -5.380523 139.999771
37 139.999771 0.000060 -0.000119 0.743633 -5.590413 -5.344749 139.999771
[Rope3_Seg08]
36 139.999985 -0.000060 0.000000 0.701148 -2.977894 -3.109098 139.999985
37 139.999985 -0.000060 0.000000 0.712441 -3.264940 -3.056946 139.999985
[Rope3_Seg09]
36 90.185997 -0.000179 -0.000060 89.793228 -1.359877 -0.847183 90.185997
37 90.185997 -0.000179 -0.000060 89.793228 -1.359877 -0.847183 90.185997
[R_rear_hand01]
36 103.366196 -6.073594 -10.757982 -161.551193 16.666374 -30.088671 104.101845
37 103.366196 -6.073594 -10.757982 -161.551193 16.666374 -30.088671 104.101845
[R_rear_hand02]
36 100.509819 12.039542 -7.992327 -34.280552 19.289745 28.875523 101.543350
37 100.509819 12.039542 -7.992327 -34.280552 19.289745 28.875523 101.543350
[R_rear_hand03]
36 101.539970 5.215704 5.435467 83.366440 -30.933914 7.284830 101.819031
37 101.539970 5.215704 5.435467 83.366440 -30.933914 7.284830 101.819031
[Rope4_Seg01]
36 0.000010 0.000038 -0.000114 47.009357 29.884325 -105.846725 0.000121
37 0.000010 0.000038 -0.000114 48.690948 30.190878 -102.378288 0.000121
[Rope4_Seg02]
36 139.999985 0.000060 0.000119 -0.232387 -1.729850 2.394402 139.999985
37 139.999985 0.000060 0.000119 -0.294196 -2.754900 1.398933 139.999985
[Rope4_Seg03]
36 139.999924 0.000000 -0.000238 -0.273386 -2.380936 2.995551 139.999924
37 139.999924 0.000000 -0.000238 -0.252417 -3.645675 1.608043 139.999924
[Rope4_Seg04]
36 139.999985 0.000000 0.000119 0.016437 -8.269863 0.481510 139.999985
37 139.999985 0.000000 0.000119 0.341623 -10.100610 -2.441630 139.999985
[Rope4_Seg05]
36 139.999802 -0.000060 -0.000119 0.368723 5.077783 12.607902 139.999802
37 139.999802 -0.000060 -0.000119 0.750293 3.224714 10.849754 139.999802
[Rope4_Seg06]
36 139.999924 0.000000 0.000060 -0.424114 12.996527 15.350848 139.999924
37 139.999924 0.000000 0.000060 0.331940 13.966755 17.827017 139.999924
[Rope4_Seg07]
36 139.999802 0.000000 0.000000 -2.068186 4.729195 7.283008 139.999802
37 139.999802 0.000000 0.000000 -2.067135 5.228741 8.387249 139.999802
[Rope4_Seg08]
36 139.999924 0.000000 0.000119 -3.220646 2.465825 4.169446 139.999924
37 139.999924 0.000000 0.000119 -3.337795 2.686587 4.779919 139.999924
[Rope4_Seg09]
36 90.185791 0.000060 0.000060 -135.617828 2.228885 0.850567 90.185791
37 90.185791 0.000060 0.000060 -135.617828 2.228885 0.850567 90.185791
[L_rear_hand01]
36 101.696655 -8.392275 -7.654577 -34.454281 -18.946800 151.655121 102.329041
37 101.696655 -8.392275 -7.654577 -34.454281 -18.946800 151.655121 102.329041
[L_rear_hand02]
36 102.726799 -1.568258 5.773216 83.407906 30.330435 172.796509 102.900848
37 102.726799 -1.568258 5.773216 83.407906 30.330435 172.796509 102.900848
[L_rear_hand03]
36 104.552910 9.721220 -10.420293 -161.379868 -16.473232 -150.512238 105.519653
37 104.552910 9.721220 -10.420293 -161.379868 -16.473232 -150.512238 105.519653
